<svg width="25" height="30" viewBox="0 0 25 30" fill="none" xmlns="http://www.w3.org/2000/svg">
<path d="M8.15517 18.3159L6.20175 24.2633L6.62589 25.7911C6.71742 26.1206 7.11482 26.2511 7.38388 26.0401L8.63095 25.0612L10.5844 19.1138C10.1661 19.0571 9.74687 18.9674 9.33163 18.831C8.91638 18.6946 8.5256 18.5183 8.15517 18.3159Z" fill="#DA3E3E"/>
<path d="M20.5906 7.89923C19.5057 5.92813 17.0308 5.27197 14.9866 6.23229L14.1863 6.60763L13.8351 5.7964C12.9422 3.72422 10.6503 2.57597 8.53211 3.33454C6.10375 4.20625 4.94303 6.98124 5.94273 9.301L8.53211 16.8893C8.75471 17.4046 10.2033 18.0209 10.7114 17.7822L18.5769 14.0836C20.8651 13.0085 21.8329 10.1605 20.5906 7.89923Z" fill="#DA3E3E"/>
<path d="M7.83338 7.21974C8.30089 5.79638 9.83879 5.01895 11.2622 5.48645C11.5134 5.56898 11.7847 5.43185 11.8672 5.18058C11.9498 4.92931 11.8126 4.65803 11.5614 4.5755C9.63621 3.94319 7.55487 4.99501 6.92243 6.92054C6.8399 7.17181 6.97703 7.44308 7.2283 7.52562C7.47957 7.60815 7.75085 7.47101 7.83338 7.21974Z" fill="white"/>
<path d="M6.99698 17.0352L6.73007 17.8478L4.77665 23.7952L4.63489 24.2268L4.75641 24.6645L5.18055 26.1924L5.18063 26.1926C5.55855 27.553 7.19867 28.0917 8.30961 27.2204L8.31008 27.22L9.55715 26.2411L9.91435 25.9607L10.056 25.5292L12.0095 19.5819L12.3018 18.6919L19.2148 15.4412C19.215 15.4412 19.2151 15.4411 19.2152 15.4411C22.2753 14.0029 23.5703 10.2076 21.9052 7.17694L21.9047 7.17594C20.502 4.62744 17.4957 3.74473 14.9327 4.63668C13.6043 2.27087 10.764 0.941958 8.02638 1.92236L8.02531 1.92274C4.79091 3.08381 3.24738 6.7463 4.54064 9.83682L6.99698 17.0352Z" stroke="white" stroke-width="3"/>
</svg>
